<?xml version="1.0" encoding="UTF-8"?>
<svg width="1024px" height="1024px" viewBox="0 0 1024 1024" version="1.1" xmlns="http://www.w3.org/2000/svg" xmlns:xlink="http://www.w3.org/1999/xlink">
    <title>logo-light</title>
    <g id="logo" stroke="none" stroke-width="1" fill="none" fill-rule="evenodd">
        <g id="file" transform="translate(284, 211)" fill="#1B1A1A" fill-rule="nonzero">
            <path d="M196.859527,309.76669 C202.880429,293.293543 199.547695,278.658407 189.179609,265.662856 C167.428785,238.39999 145.348627,211.39979 123.406453,184.28954 C86.115101,138.21484 48.8572859,92.112966 11.5042273,46.0883445 C5.43257463,38.6071218 2.66700602,30.3487863 4.65469476,20.8869338 C7.20335617,8.75479997 17.6608612,0.145309254 30.4735587,0.121577947 C93.7390714,0 157.006173,-0.128082867 220.269733,0.249618116 C235.536874,0.340770152 247.853651,7.84630336 257.463058,19.7370353 C294.150266,65.1341486 330.87687,110.499256 367.591092,155.874491 C390.322006,183.967725 413.004387,212.100479 435.804226,240.137811 C461.329312,271.526337 461.543505,315.965125 435.577321,350.006902 C414.979528,377.01061 393.792856,403.566366 372.782568,430.254052 C335.790591,477.24213 298.73366,524.179171 261.704869,571.138255 C261.481142,571.422039 261.251721,571.704234 261.057855,572.008142 C246.879819,594.231805 226.818403,602.539789 200.414067,601.973015 C144.042978,600.762878 87.6280566,601.573254 31.2311115,601.615422 C24.1702336,601.620717 17.574025,600.211924 11.7534453,596.119595 C-1.61403495,586.721159 -3.96442715,569.462823 6.69051832,554.961768 C15.6734372,542.736148 25.3149565,530.993034 34.7015637,519.065165 C86.1028525,453.747694 137.516059,388.439555 188.922413,323.126055 C192.064557,319.133815 194.821121,314.906908 196.859527,309.76669 Z" id="Path"></path>
        </g>
    </g>
</svg>
